<?xml version="1.0" encoding="utf-8"?>
<!-- Generator: Adobe Illustrator 27.6.1, SVG Export Plug-In . SVG Version: 6.00 Build 0)  -->
<svg version="1.1" id="Layer_2_00000099629117599722618350000008818102820917365135_"
	 xmlns="http://www.w3.org/2000/svg" xmlns:xlink="http://www.w3.org/1999/xlink" x="0px" y="0px" viewBox="0 0 222.2 222.2"
	 style="enable-background:new 0 0 222.2 222.2;" xml:space="preserve">
<style type="text/css">
	.st0{fill:#FFFFFF;}
</style>
<path class="st0" d="M203.8,101.9c-2.8,11.5-8.7,22.4-17.7,31.4c-26.2,26.2-69.7,25.9-95.5-0.6c-25.7-26.3-25.5-68.4,0.6-94.4
	c9-9,19.8-14.9,31.3-17.7c5.5-1.4,5-9.3-0.7-9.8c-29.2-2.6-59.3,7.4-81.5,30C1.9,79.8,1.8,143.1,40,182.4
	c39.5,40.6,104.4,41,144.4,1c22.1-22.1,31.8-51.8,29.3-80.7C213.1,97.1,205.1,96.4,203.8,101.9z"/>
</svg>
