<?xml version="1.0" encoding="UTF-8"?>
<svg id="Layer_2" data-name="Layer 2" xmlns="http://www.w3.org/2000/svg" viewBox="0 0 146.03 174.6">
  <g id="Layer_1-2" data-name="Layer 1">
    <g>
      <path d="m57,108H0V0h54.6c15.9,0,27.6,11.4,27.6,26.7,0,18.3-11.1,24.6-23.7,25.5v3.6c12.6,0,25.5,7.2,25.5,25.5,0,15.3-10.8,26.7-27,26.7ZM27,43.8h19.5c6,0,8.7-3.6,8.7-8.4s-2.7-8.4-8.7-8.4h-19.5v16.8Zm0,37.2h21.3c6,0,8.7-3.6,8.7-8.4s-2.7-8.4-8.7-8.4h-21.3v16.8Z"/>
      <path d="m146.03,64.2v69c0,24.6-18.3,41.4-42.6,41.4s-41.7-16.8-41.7-41.4v-14.4h27v13.8c0,8.1,6.9,14.4,15,14.4s15.3-6.3,15.3-14.4v-44.4h-23.4v-24h50.4Z"/>
    </g>
  </g>
</svg>