<?xml version="1.0" encoding="utf-8"?>
<!-- Generator: Adobe Illustrator 27.6.1, SVG Export Plug-In . SVG Version: 6.00 Build 0)  -->
<svg version="1.1" id="Layer_2_00000000224459600559994210000007826908451843462039_"
	 xmlns="http://www.w3.org/2000/svg" xmlns:xlink="http://www.w3.org/1999/xlink" x="0px" y="0px" viewBox="0 0 269 269"
	 style="enable-background:new 0 0 269 269;" xml:space="preserve">
<style type="text/css">
	.st0{fill:#FFFFFF;}
</style>
<path class="st0" d="M218.9,139c-1.8-0.4-3.1-2.1-3.1-3.9c0-0.2,0-0.4,0-0.6h0c0-0.1,0-0.3,0-0.4l0,0c0-1.9,1.3-3.5,3.1-3.9
	c0,0,42.7-15.9,41.3-23.6c-1.5-8.3-47.5-4.9-47.5-4.9c-2,0.5-4.1-0.5-5-2.4c0,0,0,0,0-0.1c-0.9-1.9-0.4-4.1,1.2-5.4
	c0,0,31.3-33.3,26.3-39.6c-5-6.3-44.5,16.8-44.5,16.8c-1.6,1.3-3.9,1.3-5.5,0l-0.1,0c-1.6-1.3-2.1-3.5-1.2-5.4c0,0,14.1-43,7.2-46.8
	c-7.4-4-33.4,34-33.4,34c-0.9,1.9-3,2.9-5,2.4l-0.1,0c-2-0.5-3.5-2.3-3.5-4.3c0,0-6-44.8-13.9-45.2C126.9,5.2,120,50.7,120,50.7
	c0,2.1-1.4,3.9-3.5,4.3l-0.1,0c-2,0.5-4.1-0.5-5-2.4c0,0-24.8-37.8-32.1-34.7c-7.7,3.3,5.8,47.4,5.8,47.4c0.9,1.9,0.4,4.1-1.2,5.4
	l-0.1,0.1c-1.6,1.3-3.9,1.3-5.5,0c0,0-38.8-23.3-44-17.4c-5.5,6.3,25.7,40.1,25.7,40.1c1.6,1.3,2.1,3.5,1.2,5.4l0,0.1
	c-0.9,1.9-3,2.9-5,2.4c0,0-45.9-3.4-47.4,4.8C7.4,114,50.1,130,50.1,130c1.8,0.4,3.1,2.1,3.1,3.9c0,0.2,0,0.4,0,0.6h0
	c0,0.1,0,0.3,0,0.4l0,0c0,1.9-1.3,3.5-3.1,3.9c0,0-42.7,15.9-41.3,23.6c1.5,8.3,47.5,4.9,47.5,4.9c2-0.5,4.1,0.5,5,2.4
	c0,0,0,0,0,0.1c0.9,1.9,0.4,4.1-1.2,5.4c0,0-31.3,33.3-26.3,39.6c5,6.3,44.5-16.8,44.5-16.8c1.6-1.3,3.9-1.3,5.5,0l0.1,0
	c1.6,1.3,2.1,3.5,1.2,5.4c0,0-14.1,43-7.2,46.8c7.4,4,33.4-34,33.4-34c0.9-1.9,3-2.9,5-2.4l0.1,0c2,0.5,3.5,2.3,3.5,4.3
	c0,0,6,44.8,13.9,45.2c8.4,0.4,15.3-45.2,15.3-45.2c0-2.1,1.4-3.9,3.5-4.3l0.1,0c2-0.5,4.1,0.5,5,2.4c0,0,24.8,37.8,32.1,34.7
	c7.7-3.3-5.8-47.4-5.8-47.4c-0.9-1.9-0.4-4.1,1.2-5.4l0.1-0.1c1.6-1.3,3.9-1.3,5.5,0c0,0,38.8,23.3,44,17.4
	c5.5-6.3-25.7-40.1-25.7-40.1c-1.6-1.3-2.1-3.5-1.2-5.4l0-0.1c0.9-1.9,3-2.9,5-2.4c0,0,45.9,3.4,47.4-4.8
	C261.6,155,218.9,139,218.9,139z M140.8,187.7c-2,0.2-4,0.4-6.1,0.4c-29.4,0.1-53.5-23.8-53.6-53.2c0-0.1,0-0.2,0-0.3h-0.1
	c0,0,0,0,0,0c-0.1-27.4,20.6-50.1,47.1-53.2c2-0.2,4-0.4,6.1-0.4c29.4-0.1,53.5,23.8,53.6,53.2c0,0.1,0,0.2,0,0.3h0.1c0,0,0,0,0,0
	C188,161.9,167.4,184.6,140.8,187.7z"/>
</svg>
