<svg xmlns="http://www.w3.org/2000/svg" xml:space="preserve" style="enable-background:new 0 0 269 269" viewBox="0 0 269 269"><path d="M218.9 139c-1.8-.4-3.1-2.1-3.1-3.9v-1c0-1.9 1.3-3.5 3.1-3.9 0 0 42.7-15.9 41.3-23.6-1.5-8.3-47.5-4.9-47.5-4.9-2 .5-4.1-.5-5-2.4v-.1c-.9-1.9-.4-4.1 1.2-5.4 0 0 31.3-33.3 26.3-39.6-5-6.3-44.5 16.8-44.5 16.8-1.6 1.3-3.9 1.3-5.5 0h-.1c-1.6-1.3-2.1-3.5-1.2-5.4 0 0 14.1-43 7.2-46.8-7.4-4-33.4 34-33.4 34-.9 1.9-3 2.9-5 2.4h-.1c-2-.5-3.5-2.3-3.5-4.3 0 0-6-44.8-13.9-45.2-8.3-.5-15.2 45-15.2 45 0 2.1-1.4 3.9-3.5 4.3h-.1c-2 .5-4.1-.5-5-2.4 0 0-24.8-37.8-32.1-34.7-7.7 3.3 5.8 47.4 5.8 47.4.9 1.9.4 4.1-1.2 5.4l-.1.1c-1.6 1.3-3.9 1.3-5.5 0 0 0-38.8-23.3-44-17.4C28.8 59.7 60 93.5 60 93.5c1.6 1.3 2.1 3.5 1.2 5.4v.1c-.9 1.9-3 2.9-5 2.4 0 0-45.9-3.4-47.4 4.8C7.4 114 50.1 130 50.1 130c1.8.4 3.1 2.1 3.1 3.9v1c0 1.9-1.3 3.5-3.1 3.9 0 0-42.7 15.9-41.3 23.6 1.5 8.3 47.5 4.9 47.5 4.9 2-.5 4.1.5 5 2.4v.1c.9 1.9.4 4.1-1.2 5.4 0 0-31.3 33.3-26.3 39.6 5 6.3 44.5-16.8 44.5-16.8 1.6-1.3 3.9-1.3 5.5 0h.1c1.6 1.3 2.1 3.5 1.2 5.4 0 0-14.1 43-7.2 46.8 7.4 4 33.4-34 33.4-34 .9-1.9 3-2.9 5-2.4h.1c2 .5 3.5 2.3 3.5 4.3 0 0 6 44.8 13.9 45.2 8.4.4 15.3-45.2 15.3-45.2 0-2.1 1.4-3.9 3.5-4.3h.1c2-.5 4.1.5 5 2.4 0 0 24.8 37.8 32.1 34.7 7.7-3.3-5.8-47.4-5.8-47.4-.9-1.9-.4-4.1 1.2-5.4l.1-.1c1.6-1.3 3.9-1.3 5.5 0 0 0 38.8 23.3 44 17.4 5.5-6.3-25.7-40.1-25.7-40.1-1.6-1.3-2.1-3.5-1.2-5.4v-.1c.9-1.9 3-2.9 5-2.4 0 0 45.9 3.4 47.4-4.8 1.3-7.6-41.4-23.6-41.4-23.6zm-78.1 48.7c-2 .2-4 .4-6.1.4-29.4.1-53.5-23.8-53.6-53.2v-.3H81c-.1-27.4 20.6-50.1 47.1-53.2 2-.2 4-.4 6.1-.4 29.4-.1 53.5 23.8 53.6 53.2v.3h.1c.1 27.4-20.5 50.1-47.1 53.2z" style="fill:#38363a"/></svg>