<?xml version="1.0" encoding="UTF-8"?>
<svg id="Layer_2" data-name="Layer 2" xmlns="http://www.w3.org/2000/svg" viewBox="0 0 269 269">
  <defs>
    <style>
      .cls-1 {
        fill: none;
        stroke: #000;
        stroke-linecap: round;
        stroke-miterlimit: 10;
        stroke-width: 10px;
      }
    </style>
  </defs>
  <g id="Layer_1-2" data-name="Layer 1">
    <g>
      <path d="m134.5,59.5c41.36,0,75,33.64,75,75s-33.64,75-75,75-75-33.64-75-75,33.64-75,75-75m0-10c-46.94,0-85,38.06-85,85s38.06,85,85,85,85-38.06,85-85-38.06-85-85-85h0Z"/>
      <g>
        <g id="_Radial_Repeat_" data-name="&amp;lt;Radial Repeat&amp;gt;">
          <line class="cls-1" x1="134.06" y1="244.41" x2="133.99" y2="264"/>
        </g>
        <g id="_Radial_Repeat_-2" data-name="&amp;lt;Radial Repeat&amp;gt;">
          <line class="cls-1" x1="86.42" y1="233.34" x2="77.85" y2="250.95"/>
        </g>
        <g id="_Radial_Repeat_-3" data-name="&amp;lt;Radial Repeat&amp;gt;">
          <line class="cls-1" x1="48.29" y1="202.69" x2="32.93" y2="214.84"/>
        </g>
        <g id="_Radial_Repeat_-4" data-name="&amp;lt;Radial Repeat&amp;gt;">
          <line class="cls-1" x1="27.24" y1="158.53" x2="8.13" y2="162.81"/>
        </g>
        <g id="_Radial_Repeat_-5" data-name="&amp;lt;Radial Repeat&amp;gt;">
          <line class="cls-1" x1="27.44" y1="109.62" x2="8.36" y2="105.18"/>
        </g>
        <g id="_Radial_Repeat_-6" data-name="&amp;lt;Radial Repeat&amp;gt;">
          <line class="cls-1" x1="48.83" y1="65.63" x2="33.57" y2="53.36"/>
        </g>
        <g id="_Radial_Repeat_-7" data-name="&amp;lt;Radial Repeat&amp;gt;">
          <line class="cls-1" x1="87.2" y1="35.28" x2="78.77" y2="17.6"/>
        </g>
        <g id="_Radial_Repeat_-8" data-name="&amp;lt;Radial Repeat&amp;gt;">
          <line class="cls-1" x1="134.93" y1="24.58" x2="135.01" y2="5"/>
        </g>
        <g id="_Radial_Repeat_-9" data-name="&amp;lt;Radial Repeat&amp;gt;">
          <line class="cls-1" x1="182.58" y1="35.66" x2="191.15" y2="18.05"/>
        </g>
        <g id="_Radial_Repeat_-10" data-name="&amp;lt;Radial Repeat&amp;gt;">
          <line class="cls-1" x1="220.7" y1="66.31" x2="236.06" y2="54.16"/>
        </g>
        <g id="_Radial_Repeat_-11" data-name="&amp;lt;Radial Repeat&amp;gt;">
          <line class="cls-1" x1="241.75" y1="110.46" x2="260.86" y2="106.18"/>
        </g>
        <g id="_Radial_Repeat_-12" data-name="&amp;lt;Radial Repeat&amp;gt;">
          <line class="cls-1" x1="241.56" y1="159.38" x2="260.64" y2="163.81"/>
        </g>
        <g id="_Radial_Repeat_-13" data-name="&amp;lt;Radial Repeat&amp;gt;">
          <line class="cls-1" x1="220.16" y1="203.37" x2="235.43" y2="215.64"/>
        </g>
        <g id="_Radial_Repeat_-14" data-name="&amp;lt;Radial Repeat&amp;gt;">
          <line class="cls-1" x1="181.8" y1="233.72" x2="190.22" y2="251.39"/>
        </g>
      </g>
    </g>
  </g>
</svg>