<svg xmlns="http://www.w3.org/2000/svg" viewBox="0 0 487.37 762.78"><defs><style>.cls-1{fill:#efefef;}.cls-2{fill:none;}.cls-2,.cls-3{stroke:#000;stroke-miterlimit:10;stroke-width:15px;}.cls-3{fill:#fff;}</style></defs><g id="Layer_2" data-name="Layer 2"><g id="Layer_8" data-name="Layer 8"><polygon class="cls-1" points="7.5 27.47 101.97 7.66 196.45 27.47 196.45 562.22 290.92 582.83 290.92 358.05 198.53 337.61 198.25 206.39 290.92 186.18 385.4 206.39 385.4 338.24 479.87 358.05 479.87 624.05 385.4 644.66 385.4 734.49 290.92 755.1 101.97 713.88 101.97 583.23 7.5 562.22 7.5 27.47"/><polygon class="cls-2" points="7.5 27.47 101.97 7.66 196.45 27.47 196.45 562.22 101.97 582.83 7.5 562.22 7.5 27.47"/><polyline class="cls-2" points="101.97 582.83 101.97 48.08 7.5 27.47"/><line class="cls-3" x1="196.45" y1="27.47" x2="101.97" y2="48.08"/><polyline class="cls-2" points="290.92 582.83 196.45 562.22 101.97 582.83 101.97 713.88 290.92 755.1 385.4 734.49 385.4 644.66"/><polyline class="cls-2" points="101.97 582.83 290.92 624.05 290.92 755.1"/><polygon class="cls-2" points="196.45 205.99 290.92 186.18 385.4 206.39 385.4 338.24 290.92 358.05 196.45 337.04 196.45 205.99"/><polyline class="cls-2" points="290.92 358.05 290.92 227 196.45 205.99"/><line class="cls-3" x1="290.92" y1="227" x2="385.4" y2="206.39"/><polygon class="cls-2" points="290.92 358.05 385.4 338.24 479.87 358.05 479.87 624.05 385.4 644.66 290.92 624.05 290.92 358.05"/><polyline class="cls-2" points="385.4 644.66 385.4 378.66 290.92 358.05"/><line class="cls-3" x1="385.4" y1="378.66" x2="479.87" y2="358.05"/><polygon points="13.68 28.82 95.08 48.08 101.97 576.17 90.48 580.32 13.68 563.59 7.5 552.02 7.5 42.21 13.68 28.82"/><polygon points="101.97 592.54 110.09 584.6 282.87 624.05 290.92 635.83 288.28 751.08 282.96 753.36 108.23 715.25 101.97 706.17 101.97 592.54"/><path d="M290.92,618.51l9.78,7.67,75.92,16.56c1.55.34,8.78-8.54,8.78-8.54V385.83L376,376.6,298,358.05l-7.1,10.3Z"/><polygon points="206.57 338.24 281.78 356.61 290.92 347.43 290.92 236.48 279.75 224.51 206.57 208.24 198.28 216.69 198.52 331.18 206.57 338.24"/></g></g></svg>